HIERARCHY
ROOT Hips
{
	OFFSET 0.000000 0.000000 0.000000
	CHANNELS 6 Xposition Yposition Zposition Xrotation Yrotation Zrotation
	JOINT LeftUpLeg_virtual
	{
		OFFSET 0.000000 0.000000 0.000000
		CHANNELS 3 Xrotation Yrotation Zrotation
		JOINT LeftUpLeg
		{
			OFFSET 11.394100 -6.187798 -0.413800
			CHANNELS 3 Xrotation Yrotation Zrotation
			JOINT LeftLeg
			{
				OFFSET 0.430247 -32.302673 3.732800
				CHANNELS 3 Xrotation Yrotation Zrotation
				JOINT LeftFoot
				{
					OFFSET -0.430247 -48.264931 -6.423300
					CHANNELS 3 Xrotation Yrotation Zrotation
					JOINT LeftToeBase
					{
						OFFSET 4.230900 -16.068199 23.438400
						CHANNELS 3 Xrotation Yrotation Zrotation
						JOINT LeftToe_End
						{
							OFFSET 4.510700 0.695400 19.974600
							CHANNELS 3 Xrotation Yrotation Zrotation
							End Site
							{
								OFFSET 0 0 0
							}
						}
					}
				}
			}
		}
	}
	JOINT RightUpLeg_virtual
	{
		OFFSET 0.000000 0.000000 0.000000
		CHANNELS 3 Xrotation Yrotation Zrotation
		JOINT RightUpLeg
		{
			OFFSET -11.333700 -6.187798 -0.413800
			CHANNELS 3 Xrotation Yrotation Zrotation
			JOINT RightLeg
			{
				OFFSET -0.430392 -32.302628 3.733000
				CHANNELS 3 Xrotation Yrotation Zrotation
				JOINT RightFoot
				{
					OFFSET 0.430392 -48.264973 -6.423500
					CHANNELS 3 Xrotation Yrotation Zrotation
					JOINT RightToeBase
					{
						OFFSET -4.230900 -16.068199 23.438400
						CHANNELS 3 Xrotation Yrotation Zrotation
						JOINT RightToe_End
						{
							OFFSET -4.510700 0.695400 19.974600
							CHANNELS 3 Xrotation Yrotation Zrotation
							End Site
							{
								OFFSET 0 0 0
							}
						}
					}
				}
			}
		}
	}
	JOINT Spine_virtual
	{
		OFFSET 0.000000 0.000000 0.000000
		CHANNELS 3 Xrotation Yrotation Zrotation
		JOINT Spine
		{
			OFFSET -0.002400 12.777504 0.315300
			CHANNELS 3 Xrotation Yrotation Zrotation
			JOINT Spine1
			{
				OFFSET -0.002067 5.816869 0.032633
				CHANNELS 3 Xrotation Yrotation Zrotation
				JOINT Spine1_split
				{
					OFFSET -0.002067 5.816869 0.032633
					CHANNELS 3 Xrotation Yrotation Zrotation
					JOINT Spine2
					{
						OFFSET -0.002067 5.816869 0.032633
						CHANNELS 3 Xrotation Yrotation Zrotation
						JOINT Neck_virtual
						{
							OFFSET 0.000000 0.000000 0.000000
							CHANNELS 3 Xrotation Yrotation Zrotation
							JOINT Neck
							{
								OFFSET -0.003700 21.199493 -0.826900
								CHANNELS 3 Xrotation Yrotation Zrotation
								JOINT Head
								{
									OFFSET 0.000000 20.442200 4.834800
									CHANNELS 3 Xrotation Yrotation Zrotation
									JOINT HeadTop_End
									{
										OFFSET 0.000000 34.668396 4.968400
										CHANNELS 3 Xrotation Yrotation Zrotation
										End Site
										{
											OFFSET 0 0 0
										}
									}
								}
							}
						}
						JOINT LeftShoulder_virtual
						{
							OFFSET 0.000000 0.000000 0.000000
							CHANNELS 3 Xrotation Yrotation Zrotation
							JOINT LeftShoulder
							{
								OFFSET 3.288150 8.794197 -1.372250
								CHANNELS 3 Xrotation Yrotation Zrotation
								JOINT LeftShoulder_split
								{
									OFFSET 3.288150 8.794197 -1.372250
									CHANNELS 3 Xrotation Yrotation Zrotation
									JOINT LeftArm
									{
										OFFSET 11.953299 -2.279007 -0.146200
										CHANNELS 3 Xrotation Yrotation Zrotation
										JOINT LeftForeArm
										{
											OFFSET 18.448900 0.000000 0.000000
											CHANNELS 3 Xrotation Yrotation Zrotation
											JOINT LeftHand
											{
												OFFSET 29.527798 0.000000 0.000000
												CHANNELS 3 Xrotation Yrotation Zrotation
												End Site
												{
													OFFSET 0 0 0
												}
											}
										}
									}
								}
							}
						}
						JOINT RightShoulder_virtual
						{
							OFFSET 0.000000 0.000000 0.000000
							CHANNELS 3 Xrotation Yrotation Zrotation
							JOINT RightShoulder
							{
								OFFSET -3.249400 8.794197 -1.372250
								CHANNELS 3 Xrotation Yrotation Zrotation
								JOINT RightShoulder_split
								{
									OFFSET -3.249400 8.794197 -1.372250
									CHANNELS 3 Xrotation Yrotation Zrotation
									JOINT RightArm
									{
										OFFSET -11.953299 -2.279007 -0.146200
										CHANNELS 3 Xrotation Yrotation Zrotation
										JOINT RightForeArm
										{
											OFFSET -18.448900 0.000000 0.000000
											CHANNELS 3 Xrotation Yrotation Zrotation
											JOINT RightHand
											{
												OFFSET -29.527802 0.000000 0.000000
												CHANNELS 3 Xrotation Yrotation Zrotation
												End Site
												{
													OFFSET 0 0 0
												}
											}
										}
									}
								}
							}
						}
					}
				}
			}
		}
	}
}
MOTION
Frames: 5
Frame Time: 0.03333333
11.117795 12.775215 -14.525494 0.000000 0.000000 0.000000 -114.917933 73.134572 33.676401 -105.357676 8.907689 -1.857537 87.349623 5.479641 0.489080 15.400250 -0.722205 2.055883 -0.000021 0.000013 0.000006 0.000000 0.000000 0.000000 -114.917933 73.134572 33.676401 -48.774934 6.812976 6.824978 85.849836 -5.385582 -3.170744 48.096119 0.808647 13.588472 -15.637611 0.000011 -0.000050 0.000000 0.000000 0.000000 -114.917933 73.134572 33.676401 15.211723 -10.553738 -7.512577 10.269411 -4.988685 -4.175167 0.000000 0.000000 0.000000 0.000000 0.000000 0.000000 10.075511 -5.450792 -4.055228 -3.272616 7.228372 -14.282615 -28.199343 11.664162 -14.767934 0.000000 0.000000 0.000000 10.075511 -5.450792 -4.055228 4.010587 -4.908950 30.425931 0.000000 0.000000 0.000000 -98.272161 29.592935 -48.772277 0.000002 -29.022092 -0.000000 0.000000 0.000000 0.000000 10.075511 -5.450792 -4.055228 5.201610 10.649074 -16.868037 0.000000 0.000000 0.000000 -39.319541 45.122805 97.301256 179.999773 77.063535 -179.999773 0.000000 0.000000 0.000000 
11.144276 12.776215 -14.506294 0.000000 0.000000 0.000000 -114.882197 72.980694 33.595846 -105.060877 8.827619 -1.661519 87.672486 4.435665 0.297190 13.347926 -0.735427 1.444265 0.000004 -0.000004 0.000007 0.000000 0.000000 0.000000 -114.882197 72.980694 33.595846 -48.720836 6.765596 6.842862 85.871980 -5.391225 -3.191283 48.077807 0.841571 13.448385 -15.555192 0.000010 -0.000038 0.000000 0.000000 0.000000 -114.882197 72.980694 33.595846 15.105800 -10.518361 -7.396164 10.185749 -5.031180 -4.126521 0.000000 0.000000 0.000000 0.000000 0.000000 0.000000 9.990492 -5.493618 -4.003252 -3.062562 7.250394 -14.443442 -28.110473 11.751712 -14.847708 0.000000 0.000000 0.000000 9.990492 -5.493618 -4.003252 4.107885 -4.790340 29.995046 0.000000 0.000000 0.000000 -98.160228 29.449518 -48.783533 0.000003 -28.882999 0.000002 0.000000 0.000000 0.000000 9.990492 -5.493618 -4.003252 5.169981 10.526245 -17.181305 0.000000 0.000000 0.000000 -39.744690 45.430009 97.916608 -179.999745 77.336497 179.999745 0.000000 0.000000 0.000000 
11.175498 12.788887 -14.486061 0.000000 0.000000 0.000000 -114.882607 72.837950 33.542379 -104.767616 8.717020 -1.456256 87.966484 3.477792 0.110311 11.483425 -0.730247 0.908526 0.000021 0.000005 0.000004 0.000000 0.000000 0.000000 -114.882607 72.837950 33.542379 -48.650672 6.695517 6.858441 85.892894 -5.379903 -3.206084 48.051310 0.848582 13.316255 -15.489611 0.000003 0.000030 0.000000 0.000000 0.000000 -114.882607 72.837950 33.542379 15.008789 -10.483294 -7.283382 10.107546 -5.069775 -4.078108 0.000000 0.000000 0.000000 0.000000 0.000000 0.000000 9.911562 -5.531524 -3.951643 -2.814091 7.259189 -14.677860 -28.098655 11.824102 -14.824912 0.000000 0.000000 0.000000 9.911562 -5.531524 -3.951643 4.162939 -4.692300 29.537054 0.000000 0.000000 0.000000 -97.926089 29.197102 -48.839636 0.000000 -28.731488 -0.000001 0.000000 0.000000 0.000000 9.911562 -5.531524 -3.951643 5.128153 10.398800 -17.376828 0.000000 0.000000 0.000000 -40.082911 45.719046 98.404646 179.999978 77.498345 -179.999964 0.000000 0.000000 0.000000 
11.208647 12.813118 -14.466415 0.000000 0.000000 0.000000 -114.914900 72.704775 33.509444 -104.490324 8.588516 -1.242227 88.228579 2.660304 -0.069350 9.850752 -0.715305 0.530192 -0.000001 0.000003 0.000009 0.000000 0.000000 0.000000 -114.914900 72.704775 33.509444 -48.564616 6.614254 6.874164 85.908569 -5.366037 -3.211009 48.014871 0.847919 13.205723 -15.415469 0.000011 -0.000017 0.000000 0.000000 0.000000 -114.914900 72.704775 33.509444 14.917323 -10.445763 -7.182336 10.031402 -5.101309 -4.032743 0.000000 0.000000 0.000000 0.000000 0.000000 0.000000 9.835715 -5.561067 -3.903022 -2.510886 7.244280 -14.963648 -28.169923 11.892867 -14.719187 0.000000 0.000000 0.000000 9.835715 -5.561067 -3.903022 4.162445 -4.631314 29.086272 0.000000 0.000000 0.000000 -97.556651 28.853492 -48.933032 0.000000 -28.548152 0.000000 0.000000 0.000000 0.000000 9.835715 -5.561067 -3.903022 5.090765 10.292423 -17.484576 0.000000 0.000000 0.000000 -40.270420 45.947427 98.703050 179.999909 77.501152 -179.999909 0.000000 0.000000 0.000000 
11.240127 12.850174 -14.449345 0.000000 0.000000 0.000000 -114.959365 72.570173 33.477223 -104.239854 8.450938 -1.012733 88.461359 1.995499 -0.240688 8.476914 -0.700921 0.342683 0.000008 -0.000002 0.000019 0.000000 0.000000 0.000000 -114.959365 72.570173 33.477223 -48.466251 6.539937 6.905893 85.920139 -5.348579 -3.210093 47.960390 0.851095 13.176366 -15.324732 -0.000006 0.000034 0.000000 0.000000 0.000000 -114.959365 72.570173 33.477223 14.827863 -10.408968 -7.097859 9.955224 -5.128045 -3.994235 0.000000 0.000000 0.000000 0.000000 0.000000 0.000000 9.760477 -5.585014 -3.861235 -2.153502 7.209114 -15.294132 -28.323283 11.975982 -14.538157 0.000000 0.000000 0.000000 9.760477 -5.585014 -3.861235 4.109602 -4.603213 28.649037 0.000000 0.000000 0.000000 -97.059611 28.414509 -49.038036 0.000003 -28.322315 0.000001 0.000000 0.000000 0.000000 9.760477 -5.585014 -3.861235 5.069619 10.236414 -17.536277 0.000000 0.000000 0.000000 -40.326851 46.112400 98.818098 -179.999950 77.371925 179.999964 0.000000 0.000000 0.000000 
